<?xml version="1.0" encoding="UTF-8" standalone="no"?>
<svg
   xmlns:dc="http://purl.org/dc/elements/1.1/"
   xmlns:cc="http://creativecommons.org/ns#"
   xmlns:rdf="http://www.w3.org/1999/02/22-rdf-syntax-ns#"
   xmlns:svg="http://www.w3.org/2000/svg"
   xmlns="http://www.w3.org/2000/svg"
   xmlns:sodipodi="http://sodipodi.sourceforge.net/DTD/sodipodi-0.dtd"
   xmlns:inkscape="http://www.inkscape.org/namespaces/inkscape"
   width="210mm"
   height="297mm"
   viewBox="0 0 210 297"
   version="1.1"
   id="svg8"
   inkscape:version="1.0.1 (3bc2e813f5, 2020-09-07)"
   sodipodi:docname="garbage.svg">
  <defs
     id="defs2">
    <rect
       x="75.637276"
       y="48.375784"
       width="5.3453906"
       height="12.828937"
       id="rect853" />
    <rect
       x="24.190476"
       y="49.892857"
       width="106.23705"
       height="104.05439"
       id="rect847" />
  </defs>
  <sodipodi:namedview
     id="base"
     pagecolor="#ffffff"
     bordercolor="#666666"
     borderopacity="1.0"
     inkscape:pageopacity="0.0"
     inkscape:pageshadow="2"
     inkscape:zoom="0.98303483"
     inkscape:cx="418.62761"
     inkscape:cy="422.67632"
     inkscape:document-units="mm"
     inkscape:current-layer="layer1"
     inkscape:document-rotation="0"
     showgrid="false"
     inkscape:window-width="1431"
     inkscape:window-height="1033"
     inkscape:window-x="64"
     inkscape:window-y="0"
     inkscape:window-maximized="0" />
  <metadata
     id="metadata5">
    <rdf:RDF>
      <cc:Work
         rdf:about="">
        <dc:format>image/svg+xml</dc:format>
        <dc:type
           rdf:resource="http://purl.org/dc/dcmitype/StillImage" />
        <dc:title></dc:title>
      </cc:Work>
    </rdf:RDF>
  </metadata>
  <g
     inkscape:label="Layer 1"
     inkscape:groupmode="layer"
     id="layer1">
    <path
       style="fill:none;stroke:#000000;stroke-width:0.264583px;stroke-linecap:butt;stroke-linejoin:miter;stroke-opacity:1"
       d="m 33.261905,29.482142 c -1.31746,28.817427 2.267855,57.410767 2.267855,86.178568"
       id="path835" />
    <path
       style="fill:none;stroke:#000000;stroke-width:0.264583px;stroke-linecap:butt;stroke-linejoin:miter;stroke-opacity:1"
       d="m 24.190476,49.892857 c 11.502307,-9.512583 24.612679,-16.799261 39.309523,-18.898809 5.392952,-0.770422 10.908128,-1.97852 14.363094,3.779761 5.585312,9.308851 -3.156423,16.681153 -9.827379,21.922618 -5.084715,3.995134 -10.62559,8.670237 -16.630954,11.339287 -4.276442,1.90064 -9.274688,2.802731 -13.607142,4.535713 -1.364218,0.545687 -2.398916,1.765733 -3.779761,2.267857 -1.440479,0.523812 -3.100546,0.217765 -4.535715,0.755954 -0.66734,0.250251 -0.874429,1.193165 -1.511903,1.511904 -0.908214,0.454107 -3.471092,0.755951 -4.535715,0.755951 -1.007937,0 -3.02381,-1.007935 -3.02381,0 0,0.0026 1.162945,-0.767559 3.02381,-1.511903 2.553801,-1.021522 5.523111,-3.023809 8.315476,-3.023809 5.963943,0 8.39139,-1.158703 12.095239,3.779761 1.156261,1.541682 -0.07323,3.291937 0.755951,4.535714 0.312547,0.468821 1.199357,0.287132 1.511904,0.755952 0.678894,1.018342 0.127214,3.278235 0.755954,4.535715 1.075515,2.151033 -0.529857,9.523621 0.755951,12.095237 1.573046,3.14609 -0.05219,-0.808139 1.511906,0.755954 1.564093,1.564096 -2.390142,-0.06114 0.755952,1.511906 3.420951,1.71047 13.040571,-7.371721 14.363094,-11.339288 0.522393,-1.567174 0.246975,-3.270784 1.511906,-4.535715 1.486222,-1.486223 1.763355,-4.031213 3.023809,-5.291666 0.251984,-0.251984 1.112311,-0.755952 0.755951,-0.755952 -0.578138,0 -0.755951,2.667442 -0.755951,3.779761 0,1.643864 -1.4702,12.136945 -0.755952,12.85119 0.62996,0.629963 1.637895,0.881947 2.267858,1.511906 0.178178,0.178179 -0.178181,0.577774 0,0.755952 0.356359,0.356359 1.007935,0 1.511903,0 2.187427,0 5.567352,0.664056 7.559524,0 1.508347,-0.502783 3.1178,-1.039268 4.535715,-1.511903 1.172311,-0.390771 10.998128,-6.12126 11.339285,-6.803573 0.710919,-1.421842 1.85565,-5.933038 -0.755952,-6.803572 -0.613942,-0.204645 -4.721466,-0.285099 -5.291666,0 -0.225465,0.112733 -0.800516,2.979248 -0.755955,3.023811 0.924666,0.924666 4.854626,-0.596497 6.047621,0 0.22538,0.112689 -0.178181,0.577771 0,0.755952 0.563454,0.563454 1.704404,0.192498 2.267858,0.755952 0.178178,0.178181 -0.178181,0.577773 0,0.755951 0.356359,0.35636 1.06114,-0.22538 1.511903,0 2.896032,1.448017 2.267862,5.590456 2.267862,8.315479 0,2.436381 -7.75803,5.688665 -9.071432,8.315475 -0.225383,0.45076 -0.50397,1.5119 0,1.5119 0.08893,0 -0.11117,-2.15668 0,-2.26785 0.178178,-0.17818 0.616175,0.20966 0.755952,0 0.967581,-1.45138 1.484513,-3.72498 2.267857,-5.29167 3.814723,-7.629446 -1.230204,6.84279 2.267858,-8.315476 0.305128,-1.322224 1.227576,-2.452907 1.511903,-3.779761 1.449948,-6.766425 1.478383,-13.762286 3.779762,-20.410715 5.38973,-15.570334 3.89833,-10.079339 9.82738,-22.678569 0.18188,-0.386488 5.90472,-12.095239 4.53572,-12.095239 -0.27064,0 -0.72266,2.923915 -0.75596,3.023809 -1.4404,4.321196 -0.14434,-4.569971 -1.5119,2.267857 -0.73507,3.675359 -0.96735,7.527375 -1.51191,11.339285 -0.58863,4.120441 1.31032,9.676196 0,13.607142 -1.61011,4.830334 0.46273,10.244341 -0.75595,15.119049 -0.88931,3.557246 -2.13287,7.019602 -3.02381,10.583333 -0.30557,1.222303 0.20713,2.536983 0,3.779763 -1.10598,6.63588 -0.27808,-1.155546 -1.5119,3.779761 -0.11862,0.474464 -0.50858,6.294991 0,6.803571 1.27014,1.27015 2.16638,-4.129827 2.26785,-4.535714 0.24917,-0.99668 1.74091,-2.233379 2.26786,-3.023809 0.44212,-0.663173 0.48394,-2.207786 0.75595,-3.023809 1.25126,-3.753781 2.16764,-7.359078 3.77977,-10.583333 1.57304,-3.146094 -0.0522,0.808138 1.5119,-0.755954 1.26432,-1.264317 -0.67007,-2.267858 2.26786,-2.267858 0.50397,0 1.15554,-0.356359 1.5119,0 2.93013,2.930126 1.51019,15.117334 3.77976,17.386906 0.17818,0.178181 0.57778,-0.178181 0.75596,0 0.17818,0.178181 -0.17818,0.577773 0,0.755951 0.21891,0.218911 5.07275,0.218911 5.29166,0 0.17818,-0.178178 -0.22538,-0.64326 0,-0.755951 0.45077,-0.225383 1.0338,0.159369 1.51191,0 1.19915,-0.399719 1.55781,-2.313768 2.26785,-3.023809 0.17819,-0.178181 0.57778,0.178178 0.75596,0 1.83606,-1.83606 -0.2248,-1.110057 1.5119,-2.267858 0.46882,-0.312547 1.19936,-0.287131 1.51191,-0.755951 0.27955,-0.419328 -0.12223,-1.022985 0,-1.511906 0.45745,-1.829814 1.13828,-1.517706 2.26785,-3.023809 1.981,-2.641325 -0.13817,-0.341443 0.75596,-3.02381 0.2873,-0.861919 1.22459,-1.40594 1.5119,-2.267857 0.33186,-0.995579 0.38633,-4.720529 -0.75595,-5.291667 -0.61758,-0.30879 -6.5267,-0.276875 -6.80357,0 -0.17818,0.178181 0,0.503968 0,0.755952 -0.25199,0.503968 -0.28713,1.199359 -0.75596,1.511906 -0.41932,0.279551 -1.06114,-0.225383 -1.5119,0 -0.2843,0.14215 -1.88712,3.20866 -2.26786,3.779761 -2.2011,3.301656 0.33505,-0.249174 -0.75595,3.023809 -0.7852,2.355614 -1.16042,4.482729 0,6.803572 0.11269,0.225383 -0.22538,0.643263 0,0.755952 1.429,0.714502 5.42724,1.376336 6.04762,0.755954 0.17818,-0.178181 -0.22538,-0.643263 0,-0.755954 0.45076,-0.22538 1.06114,0.225382 1.5119,0 0.22539,-0.112689 -0.17818,-0.577771 0,-0.755952 0.17818,-0.178181 0.57778,0.178181 0.75596,0 1.3071,-1.307105 3.34628,-7.659986 3.77976,-9.827381 0.0777,-0.388343 1.46819,-6.80357 0.75595,-6.80357 -0.25198,0 0.17818,0.57777 0,0.755951 -1.56409,1.564093 0.0611,-2.39014 -1.5119,0.755952 -0.75249,1.504982 0,10.789592 0,12.851191 0,0.503967 -0.35636,1.155546 0,1.511906 3.22125,3.221254 7.6432,-8.70693 8.31547,-9.827382 1.69439,-2.823977 3.88229,-5.144384 5.29167,-8.315476 0.55112,-1.24002 1.00793,-2.519841 1.5119,-3.779763 1.00794,-1.511903 2.21119,-2.910464 3.02381,-4.535712 3.73015,-7.460298 5.14725,-16.087101 6.04762,-24.190476 0.35717,-3.214537 1.84219,-8.080579 0.75595,-11.339287 -0.7153,-2.145907 -3.36559,-3.893689 -5.29166,-4.535714 -1.29964,-0.433212 -8.64876,-0.785748 -9.82738,0 -0.46882,0.312548 -0.44341,1.043083 -0.75596,1.511905 -0.59556,0.893347 -1.81408,1.05813 -2.26785,1.511905 -1.90493,1.904932 -1.51191,4.312312 -1.51191,6.80357"
       id="path837" />
    <path
       style="fill:none;stroke:#000000;stroke-width:0.264583px;stroke-linecap:butt;stroke-linejoin:miter;stroke-opacity:1"
       d="m 157.23809,67.27976 c 2.21061,0 4.74681,0.478107 6.80357,-0.755952 2.08159,-1.248949 3.51097,-3.901551 6.04762,-4.535715 4.4659,-1.116473 13.01445,-0.102925 14.3631,5.291667 0.6375,2.550012 0.3527,7.610073 -0.75595,9.827382 -3.21438,6.428755 -18.97976,17.785119 -26.45834,19.654763 -1.87497,0.468741 -1.14883,-0.468744 -3.02381,0 -1.07504,0.268761 -4.78267,2.776852 -6.04762,1.511903 -0.17818,-0.178178 0.17819,-0.577773 0,-0.755952 -0.49558,-0.495588 -1.88912,-1.13317 -2.26785,-1.511906 -1.37982,-1.37982 2.46568,-2.081813 3.02381,-2.267857 2.78247,-0.927489 5.08214,-3.297023 7.55952,-4.535712 3.88064,-1.94032 5.56022,-1.455534 8.31548,-6.047621 3.40873,-5.681229 8.7622,-19.024894 10.58333,-25.702379 1.02758,-3.767807 1.5581,-7.675023 3.02381,-11.339287 0.33742,-0.843558 1.15401,-1.432775 1.5119,-2.267855 1.03632,-2.41808 1.29081,-5.116896 2.26786,-7.559524 4.39818,-10.995455 -1.97438,6.622766 3.77976,-6.803573 0.19853,-0.463219 -0.22538,-1.06114 0,-1.511903 0.31874,-0.637477 1.14522,-0.900756 1.51191,-1.511906 0.4482,-0.747008 2.83437,-10.016823 2.26786,-10.583333 -1.86733,-1.867328 -4.34698,9.166809 -4.53572,9.827381 -1.04768,3.666871 -1.2064,7.801102 -2.26786,11.339285 -0.20479,0.682662 -1.28652,0.835761 -1.5119,1.511906 -0.31874,0.956212 0.21865,2.039874 0,3.023809 -0.29437,1.324663 -1.13912,2.474997 -1.51191,3.779761 -1.37296,4.805362 -2.04533,10.226691 -3.0238,15.119048 -0.43375,2.168731 0.36301,4.625488 0,6.80357 -0.40742,2.444493 -0.88702,5.05996 -1.51191,7.559524 -0.65219,2.608778 0.65219,5.7067 0,8.315476 -0.83776,3.351045 -0.72315,7.493918 -2.26786,10.583333 -0.91835,1.836703 -2.26785,4.622194 -2.26785,6.803577 0,0.75595 -0.75596,2.26785 0,2.26785 0.20191,0 1.99594,-4.747847 2.26785,-5.291664 1.01273,-2.025449 2.30422,-7.595883 3.77977,-9.07143 0.17817,-0.178178 0.57777,0.178181 0.75595,0 0.53454,-0.534537 -0.33807,-1.591712 0,-2.267855 0.11269,-0.225382 0.57777,0.178179 0.75595,0 1.3716,-1.371602 2.8274,-3.58336 3.77976,-4.535715 0.21175,-0.211743 3.47049,-0.154635 3.77976,0 2.81904,1.409518 2.14796,8.951535 2.26786,9.071428 0.17818,0.178181 0.57777,-0.178179 0.75595,0 0.37798,0.377976 -0.37797,1.889882 0,2.267857 0.46444,0.464437 1.76162,0.499417 2.26786,1.511906 0.53398,1.067956 0.0244,1.536317 0.75595,2.267858 0.20011,0.200104 1.95658,0 2.26786,0 4.46491,0 3.02381,-1.111004 3.02381,-5.291667"
       id="path839" />
    <path
       style="fill:none;stroke:#000000;stroke-width:0.264583px;stroke-linecap:butt;stroke-linejoin:miter;stroke-opacity:1"
       d="m 48.380951,139.09524 c -0.880306,4.83081 -5.6871,3.32038 -8.315476,5.29166 -1.529289,1.14697 -5.118475,4.18934 -6.047618,6.04762 -1.665862,3.33173 -2.939462,10.83558 0.755952,13.60714 7.816141,5.86211 26.26034,1.97087 32.505951,11.33929 2.985183,4.47777 -0.758354,16.63576 -3.023809,21.16667 -0.112689,0.22538 -0.546288,-0.13978 -0.755952,0 -1.186034,0.79069 -1.88346,2.16854 -3.023809,3.0238 -1.876764,1.40758 -7.558445,2.64638 -9.827381,1.51191 -1.62632,-0.81316 -1.084506,-11.70125 -0.755952,-12.85119 0.249595,-0.87359 1.070679,-1.47365 1.511903,-2.26786 2.999883,-5.39978 6.431616,-10.0254 9.827382,-15.11904 1.632566,-2.44885 2.74135,-5.16704 4.535715,-7.55953 0.429014,-0.57202 4.696507,-5.76204 5.291666,-6.80357 1.219653,-2.13439 0.1977,-2.02749 1.511904,-3.77976 0.427632,-0.57017 1.193167,-0.87443 1.511905,-1.51191 0.727022,-1.45404 0.359439,-3.7056 0.755952,-5.29166 0.251984,-0.75595 0.503968,-1.51191 0.755954,-2.26786 0.251984,0 0.643261,0.22538 0.755952,0 0.742871,-1.48574 0.755952,-3.48147 0.755952,-5.29167 0,-0.25198 0.178181,0.57778 0,0.75596 -1.336469,1.33647 -1.511904,0.37772 -1.511904,3.02381 0,4.70988 0.755952,8.97432 0.755952,13.60714 0,3.28485 1.501436,6.7617 2.267857,9.82738 0.355741,1.42297 -0.355742,3.11274 0,4.53571 0.919872,3.67949 0.755952,7.43479 0.755952,11.33929 0,2.09634 -0.112691,-1.20672 0.755952,2.26786 0.125984,0.50393 -0.425009,14.03215 2.267857,11.33928 1.928503,-1.9285 0.170061,-6.72786 0.755952,-9.07143 0.839748,-3.35898 3.281174,-16.75963 6.047621,-18.14285 4.657248,-2.32863 4.036792,9.58549 4.535712,10.58333 0.440296,0.88059 1.071613,1.38727 1.511906,2.26786 0.228211,0.45642 -0.349449,1.91841 0,2.26785 0.695518,0.69552 2.170723,1.51191 3.779761,1.51191 0.5081,0 1.82172,0.22307 2.26786,0 3.14609,-1.57305 -0.80814,0.0522 0.75595,-1.51191 0.1224,-0.1224 2.22204,-0.66432 2.26786,-0.75595 0.22538,-0.45076 -0.15937,-1.0338 0,-1.5119 0.39167,-1.17501 1.70399,-1.89608 2.26785,-3.02381 0.22539,-0.45077 -0.15937,-1.0338 0,-1.51191 0.24192,-0.72576 1.44268,-1.37345 1.51191,-1.5119 0.33807,-0.67615 -0.67615,-1.92979 0,-2.26786 0.45076,-0.22538 1.06114,0.22538 1.5119,0 0.67615,-0.33807 0,-1.5119 0,-2.26786 0,-3.51602 1.09917,-6.80357 -3.02381,-6.80357 -0.50396,0 -1.28652,-0.45076 -1.5119,0 -0.22538,0.45077 0.22538,1.06114 0,1.51191 -0.25198,0.50396 -1.25992,0.25198 -1.51191,0.75595 -0.22538,0.45076 0.22539,1.06114 0,1.5119 -0.97107,1.94215 -4.539063,3.77306 -3.0238,6.80358 0.29806,0.59613 2.59318,3.56445 3.0238,3.77976 2.01643,1.00821 6.83836,-0.0696 7.55953,-1.51191 0.69767,-1.39533 0,-5.21241 0,-6.80357 0,-1.00793 0,-2.01587 0,-3.02381 0,-0.25198 0.25198,-0.75595 0,-0.75595 -0.50397,0 0,1.00794 0,1.5119 0,1.51191 0,3.02381 0,4.53572 0,3.74567 -1.40406,10.58333 3.02381,10.58333 0.5081,0 1.82172,0.22307 2.26786,0 1.01248,-0.50624 1.04746,-1.80342 1.5119,-2.26786 0.17818,-0.17818 0.57777,0.17819 0.75595,0 0.56346,-0.56345 0.1925,-1.7044 0.75595,-2.26785 0.17819,-0.17818 0.57778,0.17818 0.75596,0 1.90116,-1.90117 -0.25669,-4.7783 0.75595,-6.80357 0.77412,-1.54824 0.75595,-2.63487 0.75595,-4.53572 0,-0.43648 0.88558,-11.46891 -2.26786,-8.31547 -0.34606,0.34606 -1.90311,6.41236 -0.75595,7.55952 0.37798,0.37798 1.88988,-0.37798 2.26786,0 0.17818,0.17818 -0.17818,0.57777 0,0.75595 0.11781,0.11781 2.906,0.11781 3.02381,0 0.067,-0.067 5.21614,-6.04762 3.77976,-6.04762 -1.00794,0 0,2.01587 0,3.02381 0,0.96148 -0.61198,5.43564 0,6.04762 0.3772,0.3772 3.18785,0 3.77976,0 1.65592,0 4.21722,-0.43745 5.29167,-1.5119 0.17818,-0.17818 -0.17818,-0.57778 0,-0.75596 0.56345,-0.56345 1.60484,-0.31394 2.26786,-0.75595 1.7367,-1.1578 -0.32416,-0.4318 1.5119,-2.26786 0.17818,-0.17818 0.57777,0.17819 0.75595,0 0.46241,-0.4624 3.20051,-10.40663 2.26786,-11.33928 -0.11781,-0.11781 -2.906,-0.11781 -3.02381,0 -1.82245,1.82245 3.77281,5.29862 5.29167,3.77976 0.47951,-0.47951 -0.3147,-2.39441 0,-3.02381 0.31874,-0.63747 1.11656,-0.91889 1.5119,-1.5119 0.73868,-1.10802 1.68138,-5.20693 3.02381,-4.53572 0.75454,0.37727 4.19571,5.78355 4.53572,6.80357 0.15936,0.47811 -0.22539,1.06115 0,1.51191 0.33859,0.67718 2.20991,0.92978 2.26785,0.75595 0.67303,-2.01907 0.0747,-4.75977 0.75596,-6.80357 0.51679,-1.5504 3.02381,-10.24151 3.02381,-4.53571 0,2.58608 3.42751,6.45132 5.29166,8.31547 0.35636,0.35636 1.06114,-0.22538 1.51191,0 1.34419,0.6721 3.10957,1.79248 4.53571,2.26786 2.65791,0.88597 7.47449,0.0283 9.82738,-0.75595 0.86835,-0.28945 1.04883,-1.80478 1.51191,-2.26786 0.39842,-0.39842 1.19935,-0.28713 1.5119,-0.75595 0.4692,-0.7038 2.45369,-16.44513 1.51191,-17.38691 -0.61173,-0.61172 -3.93978,-1.39271 -4.53572,-1.5119 -2.56059,-0.51212 -6.47793,0.43031 -8.31547,2.26785 -1.78449,1.78449 -4.35648,12.27449 -1.51191,15.11905 3.64523,3.64523 14.84536,1.30333 16.63095,-2.26786 0.26871,-0.53742 2.99646,-9.07142 2.26786,-9.07142 -0.25198,0 0.11269,0.53057 0,0.75595 -1.57305,3.14609 0.0522,-0.80814 -1.5119,0.75595 -0.36429,0.36428 -0.1786,4.75587 0,5.29167 0.12917,0.38752 1.46339,4.4872 1.5119,4.53571 0.39842,0.39843 1.06114,0.41788 1.51191,0.75595 1.79539,0.18713 1.28402,2.23675 2.26785,3.02381 0.87997,0.70398 2.12229,0.83576 3.02381,1.51191 0.20159,0.15119 -0.20966,0.61618 0,0.75595 3.4962,2.3308 6.38164,3.02381 10.58333,3.02381"
       id="path841" />
    <path
       style="fill:none;stroke:#000000;stroke-width:0.264583px;stroke-linecap:butt;stroke-linejoin:miter;stroke-opacity:1"
       d="m 71.815475,71.059523 6.803572,-4.535715"
       id="path843" />
    <text
       xml:space="preserve"
       id="text845"
       style="font-style:normal;font-weight:normal;font-size:25.4px;line-height:1.25;font-family:sans-serif;white-space:pre;shape-inside:url(#rect847);fill:#000000;fill-opacity:1;stroke:none;"><tspan
         x="24.191406"
         y="73.452291"><tspan
           style="fill:#00ff00;fill-opacity:1">Rishabh </tspan><tspan
           style="font-style:normal;font-variant:normal;font-weight:normal;font-stretch:normal;font-size:25.4px;font-family:'Britannic Bold';-inkscape-font-specification:'Britannic Bold, '">
</tspan></tspan><tspan
         x="24.191406"
         y="105.58881"><tspan
           style="font-style:normal;font-variant:normal;font-weight:normal;font-stretch:normal;font-size:25.4px;font-family:'Britannic Bold';-inkscape-font-specification:'Britannic Bold, '">
</tspan></tspan><tspan
         x="24.191406"
         y="137.72533"><tspan
           style="fill:#ff00ed;fill-opacity:1">Sharma</tspan></tspan></text>
    <text
       xml:space="preserve"
       id="text851"
       style="fill:black;fill-opacity:1;line-height:1.25;stroke:none;font-family:sans-serif;font-style:normal;font-weight:normal;font-size:10.58333333px;white-space:pre;shape-inside:url(#rect853);" />
    <path
       style="fill:#5d6d57;fill-opacity:0.0431373;stroke:#000000;stroke-width:1.2"
       id="path883"
       d="m 27.84363,25.938542 c 1.497841,8.019906 2.533299,16.119555 3.439346,24.225047 0.693216,7.979061 1.602372,15.936555 2.440556,23.901236 0.667343,5.907275 1.076891,11.840363 1.221703,17.782802 0.08145,1.923642 -0.01498,3.840564 -0.196379,5.754502 -0.07113,0.789022 -0.121499,1.57947 -0.14428,2.371325 -7.94e-4,0.825696 0.01294,1.651226 0.01606,2.476926 -0.0066,0.95067 0.0049,1.90134 -7.1e-5,2.85201 -0.0013,0.51357 -0.03252,1.02498 0.02098,1.53618 0,0 3.47816,-1.81839 3.47816,-1.81839 v 0 c -0.05202,-0.49132 -0.03283,-0.98513 -0.04335,-1.47872 -0.0055,-0.95021 0.0053,-1.90044 -0.0027,-2.85066 0.0024,-0.830601 0.01043,-1.661064 0.03225,-2.491427 0.01257,-0.774674 0.03989,-1.549019 0.08879,-2.322322 0.08799,-1.878325 0.05386,-3.751964 -0.161309,-5.623293 C 37.559003,84.394483 36.963482,78.547025 36.32727,72.703213 35.474338,64.766922 34.631362,56.829454 33.686683,48.903318 c -1.005818,-8.208772 -2.209048,-16.415859 -2.5392,-24.687263 0,0 -3.303855,1.722487 -3.303855,1.722487 z" />
    <path
       style="fill:#5d6d57;fill-opacity:0.0431373;stroke:#000000;stroke-width:1.2"
       id="path885"
       d="m 34.467276,25.478373 c 0.297852,-0.194909 0.595706,-0.389817 0.893558,-0.584725 0.482521,-0.282393 0.978009,-0.543716 1.447568,-0.847178 0.405902,-0.262325 -1.701636,0.911593 -1.256393,0.723627 0.645819,-0.272642 1.232903,-0.668224 1.861267,-0.978984 1.882246,-0.930871 1.86672,-0.866399 3.838109,-1.596699 3.312811,-1.107093 6.833151,-1.225058 10.262434,-0.654242 0.532024,0.08856 1.055936,0.220369 1.583904,0.330554 0.731327,0.217095 1.791518,0.479129 2.468094,0.877236 2.553512,1.502524 4.267372,4.058878 5.924764,6.430319 1.466832,2.183366 2.537709,4.564264 3.248711,7.093485 0.533095,1.89635 0.629639,2.636554 0.992269,4.559469 0.367062,2.42793 0.708269,4.885354 0.629454,7.34872 -0.02819,0.881007 -0.165576,1.934332 -0.265932,2.813061 -0.311955,2.758656 -1.597285,5.237596 -2.936433,7.623219 -1.455862,2.655756 -3.173344,5.142302 -4.966171,7.5775 -1.703224,2.194367 -3.663495,4.168201 -5.647195,6.105943 -1.787531,1.887813 -3.719769,3.600694 -5.837579,5.105689 0.836795,-0.365197 -2.840929,1.789694 -2.105038,1.384842 0.698751,-0.384418 1.405162,-0.760706 2.063681,-1.21058 0.319815,-0.218482 -0.692682,0.346901 -1.042575,0.513003 -0.938064,0.445315 -1.005274,0.459412 -1.93458,0.842286 -1.133131,0.431307 -2.268384,0.86615 -3.429879,1.21653 -0.982951,0.821259 -2.253443,1.38811 -2.948858,2.463776 -0.210269,0.325247 0.718894,0.2886 1.081514,0.42463 0.493821,0.18525 0.993907,0.35352 1.487588,0.539136 1.74226,0.655055 3.452968,1.379061 5.160872,2.117828 2.900966,1.252622 5.639602,2.834984 8.308483,4.516824 2.28826,1.518997 4.611703,2.984066 6.868893,4.549418 1.054325,0.74114 2.152594,1.412814 3.160562,2.216904 0.293666,0.252629 0.643448,0.404365 0.993605,0.557567 0,0 3.286363,-2.182151 3.286363,-2.182151 v 0 c -0.330001,-0.151339 -0.690067,-0.230111 -0.982419,-0.459756 -1.077314,-0.769075 -2.222574,-1.421135 -3.34164,-2.127724 -2.322406,-1.492805 -4.67261,-2.942293 -6.9436,-4.513487 -2.705402,-1.69467 -5.504154,-3.238897 -8.444037,-4.493326 -2.150536,-0.925433 -4.335124,-1.793349 -6.458733,-2.77935 -0.28893,-0.134152 -0.553733,-0.53934 -0.853157,-0.430604 -1.25494,0.455726 -2.313331,1.333693 -3.469994,2.000541 1.205388,-0.416515 2.41073,-0.833649 3.594806,-1.309553 3.308212,-1.339995 6.442154,-3.090018 9.339363,-5.177451 2.100334,-1.526929 4.008668,-3.265628 5.796944,-5.149466 1.976083,-1.954356 3.943675,-3.928782 5.616178,-6.156841 1.772105,-2.441951 3.459414,-4.942853 4.90175,-7.597381 1.351772,-2.444517 2.723573,-4.941988 2.936761,-7.785444 0.09077,-1.022289 0.178515,-1.785432 0.18532,-2.820598 0.01619,-2.462438 -0.419727,-4.893506 -0.828805,-7.312237 -0.449731,-2.26169 -0.856956,-4.559763 -1.597289,-6.750513 -0.6179,-1.82845 -1.572739,-3.477564 -2.699859,-5.036783 -1.142944,-1.573631 -1.561727,-2.203552 -2.825327,-3.719008 -0.754483,-0.904864 -1.942991,-2.327808 -2.97784,-3.018082 -0.61523,-0.410375 -1.9207,-0.698162 -2.5938,-0.880234 -1.432208,-0.265868 -2.093659,-0.422038 -3.585472,-0.55015 -2.846134,-0.244417 -5.741406,-0.101306 -8.470604,0.793149 -0.65741,0.233573 -1.325329,0.439453 -1.972236,0.70072 -0.995129,0.401904 -2.808054,1.2896 -3.744674,1.812365 -2.120733,1.183666 -4.236371,2.378345 -6.312583,3.638475 -0.365302,0.221716 -0.717359,0.464554 -1.076039,0.696829 0,0 3.615926,-1.451098 3.615926,-1.451098 z" />
    <path
       style="fill:#5d6d57;fill-opacity:0.0431373;stroke:#000000;stroke-width:1.2"
       id="path887"
       d="m 68.564712,69.246048 c 0.221159,3.931626 0.481729,7.862065 0.784812,11.788521 0.161576,2.956581 0.50605,5.893332 0.847929,8.832289 0.179411,1.619509 0.374655,3.234385 0.46305,4.862055 0.08122,0.935378 0.197897,1.866807 0.255352,2.804189 0.0046,0.103364 0.0091,0.206729 0.01368,0.310094 0,0 3.484636,-1.802006 3.484636,-1.802006 v 0 c -0.008,-0.104441 -0.01593,-0.208883 -0.02389,-0.313325 -0.09009,-0.920041 -0.238659,-1.832538 -0.346088,-2.750584 -0.121306,-1.622888 -0.310637,-3.236952 -0.547688,-4.846987 -0.435363,-2.877299 -0.896884,-5.74984 -1.160086,-8.650269 -0.383143,-3.986225 -0.643483,-7.992173 -0.317363,-11.994054 0,0 -3.454347,1.760077 -3.454347,1.760077 z" />
    <path
       style="fill:#5d6d57;fill-opacity:0.0431373;stroke:#000000;stroke-width:1.2"
       id="path889"
       d="m 93.046406,62.450043 c -2.006714,0.214436 -3.907602,0.954005 -5.773764,1.682154 -2.279041,0.909206 -4.338495,2.190491 -6.45406,3.440256 -0.867368,0.512394 -1.651162,1.129728 -2.397655,1.800198 -0.749802,0.760368 -1.422603,1.66289 -1.672719,2.723444 -0.143574,0.608795 -0.101957,0.932151 -0.09362,1.547481 0.399251,1.594554 1.473351,2.90943 2.893087,3.732866 0.318772,0.184883 0.665432,0.316842 0.998148,0.475261 2.621701,0.930391 5.44385,0.871921 8.188447,0.877826 1.864778,-0.0043 3.784608,0.0425 5.54065,0.751002 0.297976,0.120221 0.578366,0.280109 0.86755,0.420161 1.651987,1.004853 2.497064,2.501122 3.115884,4.273677 0.59209,1.817539 0.405096,3.652967 0.0035,5.48191 -0.358426,1.633405 -0.961904,2.655017 -2.218984,3.736519 -1.19467,0.631378 -3.69375,2.422531 1.448303,-0.857784 0.171619,-0.109482 -0.373449,0.16302 -0.565378,0.23086 -0.47862,0.169171 -0.660275,0.188079 -1.159102,0.290068 -1.07863,0.164864 -2.137871,-0.02699 -3.164443,-0.350354 -0.956432,-0.411639 -1.815367,-1.010086 -2.668487,-1.599126 -0.650185,-0.369501 -1.229228,-0.845484 -1.874721,-1.221081 -0.373462,-0.254452 -0.769372,-0.448426 -1.201598,-0.576693 0,0 -3.243569,2.239576 -3.243569,2.239576 v 0 c 0.423111,0.0797 0.809765,0.228044 1.163643,0.480427 0.665594,0.334241 1.220009,0.841944 1.894149,1.165247 0.894107,0.581898 1.767359,1.195726 2.711762,1.697027 1.065819,0.366876 2.187208,0.546549 3.316523,0.476313 0.5319,-0.08011 0.687438,-0.08506 1.203246,-0.235688 2.083697,-0.608507 3.87682,-1.980893 5.663983,-3.180959 0.177506,-0.17332 0.367125,-0.335047 0.532509,-0.519961 0.85111,-0.951569 1.31506,-2.175383 1.54609,-3.413506 0.35894,-1.893785 0.5178,-3.796755 -0.0964,-5.663655 -0.67743,-1.877208 -1.555364,-3.408577 -3.286144,-4.508257 -0.301265,-0.151714 -0.593061,-0.323913 -0.903798,-0.455144 -1.793869,-0.757595 -3.771418,-0.826056 -5.688184,-0.797449 -2.691588,0.04188 -5.448835,0.09277 -8.029101,-0.790308 -0.316217,-0.144274 -0.645232,-0.263281 -0.948656,-0.432821 -1.334119,-0.74545 -2.35513,-1.937467 -2.648077,-3.453066 0.0042,-0.237128 -0.0122,-0.475499 0.01246,-0.71138 0.135932,-1.301367 0.92896,-2.376728 1.851813,-3.250012 0.704829,-0.597871 0.644036,-0.577842 1.438095,-1.115306 0.299546,-0.20275 1.233403,-0.753901 0.911805,-0.588338 -0.729782,0.375705 -1.446623,0.779121 -2.138929,1.220083 -0.710258,0.452398 3.03027,-1.657514 2.281653,-1.084545 1.761733,-0.701376 3.551552,-1.409208 5.450615,-1.616713 0,0 3.193497,-2.32021 3.193497,-2.32021 z" />
    <path
       style="fill:#5d6d57;fill-opacity:0.0431373;stroke:#000000;stroke-width:1.2"
       id="path891"
       d="m 101.39962,63.868225 c 0.3839,1.980049 0.76563,3.960495 1.17328,5.936157 0.51514,2.310763 0.90771,4.649378 1.48487,6.945699 0.42304,1.542018 0.81918,3.092955 1.15446,4.656651 0.22014,0.729726 0.32775,1.483791 0.53494,2.215914 0.0767,0.53317 0.3254,1.004382 0.514,1.501243 0.20431,0.49597 0.32133,1.016376 0.47355,1.528702 0.21208,0.573521 0.5025,1.111417 0.76538,1.661898 0.23819,0.494607 0.42818,0.989272 0.52306,1.531207 0.0803,0.444141 0.26672,0.85157 0.41733,1.273268 0,0 3.44805,-1.912371 3.44805,-1.912371 v 0 c -0.14998,-0.39918 -0.33038,-0.78595 -0.39624,-1.211789 -0.11709,-0.569376 -0.31675,-1.099318 -0.57718,-1.618242 -0.25704,-0.528405 -0.53544,-1.048457 -0.72906,-1.604949 -0.14352,-0.527818 -0.27977,-1.054167 -0.48767,-1.561378 -0.18959,-0.485489 -0.40288,-0.957091 -0.50029,-1.473264 -0.22235,-0.714319 -0.34963,-1.453231 -0.59098,-2.162794 -0.41401,-1.534281 -0.85435,-3.061041 -1.27991,-4.592071 -0.56797,-2.287593 -1.06743,-4.591023 -1.52514,-6.902968 -0.37261,-1.985569 -0.84741,-3.983451 -0.86962,-6.010984 0,0 -3.53283,1.800071 -3.53283,1.800071 z" />
    <path
       style="fill:#5d6d57;fill-opacity:0.0431373;stroke:#000000;stroke-width:1.2"
       id="path893"
       d="m 106.94227,75.188587 c 1.77159,-0.06984 3.54519,-0.05882 5.3178,-0.05586 1.57683,0.0019 3.15359,0.01516 4.73035,0.02831 1.00185,0.0542 1.99036,-0.094 2.97239,-0.269558 0.71624,-0.139874 1.40937,-0.373597 2.09044,-0.631766 0.26277,-0.09759 0.51002,-0.229992 0.76185,-0.351809 0,0 3.08585,-2.444311 3.08585,-2.444311 v 0 c -0.26575,0.106908 -0.52428,0.225277 -0.7657,0.381686 -0.68078,0.25782 -1.35829,0.522927 -2.06634,0.701111 -0.9829,0.189407 -1.96653,0.399904 -2.97507,0.359876 -1.60274,0.01307 -3.20547,0.02625 -4.80828,0.02831 -1.72131,0.0029 -3.44386,0.01651 -5.16405,-0.05586 0,0 -3.17924,2.309858 -3.17924,2.309858 z" />
    <path
       style="fill:#5d6d57;fill-opacity:0.0431373;stroke:#000000;stroke-width:1.2"
       id="path895"
       d="m 119.57787,61.760038 c 0.16673,2.39485 0.14812,4.796412 0.28254,7.193643 0.0412,2.728386 0.53108,5.396513 1.24059,8.020626 0.53394,1.569451 1.06203,3.137051 1.5261,4.728269 0.25219,0.991515 0.56322,1.966685 0.89604,2.933647 0.10261,0.367509 0.22936,0.727241 0.34323,1.091292 0,0 3.42589,-1.883042 3.42589,-1.883042 v 0 c -0.12233,-0.364879 -0.25055,-0.727813 -0.36335,-1.095817 -0.36251,-0.947079 -0.65514,-1.916567 -0.93488,-2.891253 -0.51501,-1.563288 -1.0952,-3.100543 -1.64295,-4.652721 -0.74911,-2.572946 -1.27455,-5.197055 -1.31462,-7.888587 -0.0987,-2.44969 -0.13094,-4.905883 0.0664,-7.352128 0,0 -3.52499,1.796071 -3.52499,1.796071 z" />
    <path
       style="fill:#5d6d57;fill-opacity:0.0431373;stroke:#000000;stroke-width:1.2"
       id="path897"
       d="m 130.28042,59.711793 c 0.11254,1.957546 0.12185,3.919834 0.11317,5.880073 -0.0269,1.971686 -0.0268,3.943549 -0.0407,5.915322 -0.0303,1.473282 -0.0178,2.946495 -0.0152,4.419843 0.007,1.273844 -0.0212,2.54749 -0.028,3.821277 -0.006,0.835411 -0.0144,1.670785 -0.0231,2.506175 -10e-4,0.105455 -0.002,0.210908 -0.003,0.31636 0,0 3.49477,-1.78067 3.49477,-1.78067 v 0 c -0.001,-0.1045 -0.002,-0.208997 -0.003,-0.313497 -0.009,-0.827534 -0.0174,-1.655056 -0.0231,-2.482614 -0.007,-1.26428 -0.0346,-2.528417 -0.028,-3.792757 0.003,-1.468192 0.0153,-2.936243 -0.0152,-4.40436 -0.0139,-1.957946 -0.0137,-3.915979 -0.0407,-5.873835 -0.009,-1.998718 0.003,-3.999209 0.11316,-5.995392 0,0 -3.50144,1.784075 -3.50144,1.784075 z" />
    <path
       style="fill:#5d6d57;fill-opacity:0.0431373;stroke:#000000;stroke-width:1.2"
       id="path899"
       d="m 131.93165,57.608834 c 2.0286,1.372976 4.10318,2.681833 6.05579,4.164034 0.56576,0.429469 1.11385,0.88175 1.67077,1.322623 2.35465,1.966905 4.5755,4.087675 6.69741,6.302049 0.8557,0.972887 1.87259,1.778559 2.79879,2.677586 0.38739,0.441971 0.87196,0.802191 1.21718,1.279938 0.2314,0.250225 0.35083,0.53426 0.4211,0.861804 0,0 3.47516,-1.873774 3.47516,-1.873774 v 0 c -0.0946,-0.370057 -0.22952,-0.715246 -0.49917,-0.996331 -0.36476,-0.502923 -0.88339,-0.861894 -1.30712,-1.312701 -0.96433,-0.876681 -2.02514,-1.645674 -2.94142,-2.577632 -2.25957,-2.130057 -4.54419,-4.236156 -6.96668,-6.181857 -2.4356,-1.922976 -4.97374,-3.722404 -7.30255,-5.775968 0,0 -3.31926,2.110229 -3.31926,2.110229 z" />
    <path
       style="fill:#5d6d57;fill-opacity:0.0431373;stroke:#000000;stroke-width:1.2"
       id="path901"
       d="m 132.35595,72.460598 c 1.34027,-0.661924 2.68396,-1.317691 3.99237,-2.041118 8.79633,-5.08001 2.23161,-1.293304 1.08496,-0.616841 -0.15749,0.09291 0.32058,-0.17602 0.48286,-0.260276 0.39354,-0.20433 0.79621,-0.391954 1.19777,-0.579813 0.5316,-0.294958 1.11188,-0.46704 1.67557,-0.682922 1.42941,-0.640911 2.80585,-1.621509 4.12511,-2.32424 1.18275,-0.630015 -4.52538,2.60323 -3.03951,1.761405 0.27658,-0.127807 0.13758,-0.06216 0.41695,-0.197061 0,0 3.09324,-2.447203 3.09324,-2.447203 v 0 c -0.28781,0.111752 -0.1503,0.04901 -0.41335,0.186404 -1.0101,0.356066 -8.29789,4.813565 -0.52378,0.280967 0.27934,-0.162865 -0.82782,0.34028 -0.5565,0.307197 -0.57878,0.222999 -1.17813,0.39012 -1.72522,0.691872 -0.58695,0.260321 -1.18247,0.530669 -1.7408,0.84836 -0.78917,0.449035 -7.82573,4.498745 -1.11514,0.637556 -1.25806,0.728805 -2.5575,1.388758 -3.88538,1.980681 0,0 -3.06915,2.455032 -3.06915,2.455032 z" />
    <path
       style="fill:#5d6d57;fill-opacity:0.0431373;stroke:#000000;stroke-width:1.2"
       id="path903"
       d="m 150.89747,52.460292 c 0.38772,1.47656 0.73034,2.956832 1.24459,4.396798 0.778,2.164267 1.49137,4.351922 2.17128,6.548855 0.66433,1.757206 1.13991,3.57451 1.66339,5.375865 0.17746,0.806545 0.51435,1.55484 0.82298,2.314424 0.066,0.257435 0.16633,0.503825 0.25397,0.754272 0,0 3.44562,-1.907432 3.44562,-1.907432 v 0 c -0.0937,-0.256484 -0.19594,-0.51019 -0.26964,-0.773504 -0.32982,-0.730308 -0.694,-1.444638 -0.90238,-2.224773 -0.59336,-1.772078 -1.1479,-3.556994 -1.76009,-5.322845 -0.69209,-2.19566 -1.47102,-4.362275 -2.16571,-6.557213 -0.4304,-1.457346 -0.82558,-2.934859 -1.01321,-4.445953 0,0 -3.4908,1.841506 -3.4908,1.841506 z" />
    <path
       style="fill:#5d6d57;fill-opacity:0.0431373;stroke:#000000;stroke-width:1.2"
       id="path905"
       d="m 155.23131,49.109677 c 0.92355,-0.614011 1.87887,-1.183203 2.83113,-1.751206 0.53154,-0.317047 1.04797,-0.662334 1.60051,-0.941173 0.48117,-0.242826 -0.92394,0.555252 -1.38591,0.832879 0.49268,-0.259474 0.98536,-0.518948 1.47805,-0.778422 1.87347,-0.915808 3.79318,-1.794788 5.86438,-2.130386 1.22962,-0.08018 2.16974,0.635069 2.85034,1.590347 0.31619,0.634606 0.52582,1.353505 0.54683,2.067767 0.011,0.37257 -0.073,0.765767 -0.13241,1.128964 -0.40028,1.711258 -1.4651,3.131767 -2.51588,4.501366 -0.96285,1.203177 -2.03203,2.32745 -3.23543,3.292129 -0.32201,0.255354 -1.44532,0.924864 -0.66611,1.376828 0.12811,0.0743 0.29097,0.05538 0.43645,0.08307 1.3546,-0.191601 2.66907,-0.585716 4.01286,-0.841304 0.94593,-0.116832 1.9244,-0.34657 2.87472,-0.16751 0.78205,0.248179 0.97278,0.874434 1.03299,1.624367 -0.10108,1.309579 -0.7155,2.427589 -1.50773,3.441861 -0.96157,1.204532 -2.20536,2.116214 -3.42022,3.044801 -1.12168,0.764204 -3.52147,2.25079 1.77628,-0.972632 0.15325,-0.09325 -0.32212,0.158004 -0.48414,0.235022 -0.47874,0.227584 -0.43561,0.203546 -0.91664,0.409032 -0.8232,0.328174 -1.65923,0.62801 -2.51847,0.846842 -0.56952,0.145534 -1.15641,0.165682 -1.73948,0.202945 -0.30441,0.04955 -0.15378,0.02191 -0.45193,0.08272 0,0 -3.14558,2.383211 -3.14558,2.383211 v 0 c 0.29772,-0.06029 0.14956,-0.02684 0.44445,-0.100383 0.57988,-0.14664 1.20455,-0.03421 1.78726,-0.199986 0.88383,-0.194886 1.73638,-0.498996 2.5813,-0.820623 2.21713,-0.851964 4.29137,-2.084549 6.20827,-3.481001 1.21222,-0.952918 2.44205,-1.899823 3.38011,-3.140753 0.78515,-1.111504 1.39501,-2.329865 1.44143,-3.718774 -0.0883,-0.960858 -0.32419,-1.625976 -1.25117,-2.04888 -0.13247,-0.0437 -0.26031,-0.10531 -0.39739,-0.131104 -0.78661,-0.148032 -1.84983,0.156086 -2.64191,0.208555 -1.31108,0.226311 -2.593,0.58048 -3.89463,0.853247 -0.10823,0.02524 -0.4716,0.05317 -0.2873,0.209669 0.0304,0.02585 0.051,-0.06154 0.0789,-0.09015 0.2618,-0.26892 0.55968,-0.496684 0.84727,-0.736714 1.13429,-1.011338 2.17115,-2.127216 3.10201,-3.32907 1.05873,-1.436862 2.13224,-2.928993 2.51375,-4.705715 0.18582,-1.274807 0.0608,-2.310934 -0.53436,-3.470344 -0.58723,-0.818089 -1.44004,-1.627409 -2.45954,-1.865122 -0.21641,-0.05046 -0.44341,-0.02994 -0.66512,-0.04492 -0.24663,0.0304 -0.4959,0.04404 -0.73988,0.0912 -1.90752,0.368724 -3.65964,1.315649 -5.41211,2.102411 -3.72219,1.959441 -7.33838,4.115628 -10.94617,6.276671 0,0 3.66023,-1.419749 3.66023,-1.419749 z" />
    <path
       style="fill:#5d6d57;fill-opacity:0.0431373;stroke:#000000;stroke-width:1.2"
       id="path907"
       d="m 174.11263,40.201117 c 0.45996,4.185094 0.86137,8.378092 1.28672,12.5678 0.21927,1.876849 0.29763,3.774856 0.58705,5.643978 0.2004,1.294191 0.52122,2.577156 0.8274,3.849381 0.30155,1.410766 0.73873,2.78602 1.20991,4.147661 0.0417,0.137559 0.0833,0.275122 0.125,0.412681 0,0 3.40779,-1.871977 3.40779,-1.871977 v 0 c -0.0478,-0.141026 -0.0957,-0.282054 -0.14351,-0.42308 -0.52743,-1.313505 -0.98487,-2.654837 -1.3556,-4.021513 -0.33655,-1.243639 -0.67459,-2.490758 -0.91427,-3.757742 -0.34605,-1.829255 -0.53668,-3.68537 -0.78522,-5.528783 -0.5227,-4.238398 -1.04851,-8.526992 -0.74383,-12.802479 0,0 -3.50144,1.784073 -3.50144,1.784073 z" />
    <path
       style="fill:#5d6d57;fill-opacity:0.0431373;stroke:#000000;stroke-width:1.2"
       id="path909"
       d="m 175.58198,55.660742 c 1.67469,-0.782733 3.42453,-1.380588 5.16729,-1.989897 1.86678,-0.654196 3.63444,-1.544709 5.42845,-2.369058 0.54729,-0.251825 1.1097,-0.468413 1.67107,-0.686205 0.0414,-0.01603 0.66695,-0.251351 0.73959,-0.291883 1.22139,-0.681514 2.42861,-1.388118 3.64291,-2.082175 1.29955,-0.758952 0.3479,-0.202774 -2.86172,1.65691 0,0 3.06944,-2.459476 3.06944,-2.459476 v 0 c -3.69743,2.107768 -2.41521,1.360858 -3.86595,2.207223 1.02498,-0.584518 2.04996,-1.169033 3.07494,-1.75355 -0.11136,0.05681 -0.21952,0.12039 -0.33409,0.17042 -0.71721,0.313198 -1.47161,0.542095 -2.17628,0.886138 -1.81608,0.842512 -3.59915,1.762008 -5.48045,2.456037 -1.66951,0.581009 -3.34226,1.153882 -4.99067,1.788178 0,0 -3.08453,2.467338 -3.08453,2.467338 z" />
    <path
       style="fill:#5d6d57;fill-opacity:0.0431373;stroke:#000000;stroke-width:1.2"
       id="path911"
       d="m 187.07114,38.702681 c 1.19309,3.021589 2.19587,6.114568 3.13844,9.222139 0.80214,2.310871 1.4924,4.656852 2.12441,7.019081 0.393,1.256903 0.56405,2.566196 0.89288,3.838498 0.22,0.624165 0.42625,1.25073 0.55899,1.89951 0,0 3.45103,-1.856195 3.45103,-1.856195 v 0 c -0.15927,-0.645216 -0.38799,-1.266407 -0.60691,-1.893297 -0.36308,-1.255628 -0.57358,-2.549798 -0.97935,-3.793922 -0.68072,-2.335313 -1.57217,-4.601935 -2.3701,-6.898338 -1.01465,-3.105563 -2.07837,-6.207874 -2.77528,-9.40403 0,0 -3.43411,1.866554 -3.43411,1.866554 z" />
    <path
       style="fill:#5d6d57;fill-opacity:0.0431373;stroke:#000000;stroke-width:1.2"
       id="path913"
       d="m 56.603608,147.23495 c -2.757331,1.17368 -3.667937,2.11188 -5.61137,3.7185 -0.956956,0.7911 -1.306518,1.01236 -2.36573,1.77438 -3.720801,2.64742 -7.454357,5.27922 -11.080657,8.05542 -2.803255,2.29074 -5.719808,4.50684 -8.203589,7.15691 -0.313584,0.33458 -0.600855,0.69289 -0.901284,1.03933 -0.709549,0.85906 -1.41454,1.92459 -0.935117,3.08125 0.215754,0.52054 0.480748,0.68169 0.879848,1.04396 0.215561,0.10566 0.421007,0.23512 0.646684,0.31698 1.298538,0.47101 3.059599,0.38615 4.428643,0.39249 1.8541,0.0112 3.690496,-0.34824 5.542595,-0.3643 0.339442,-0.003 0.678521,0.023 1.017781,0.0344 1.267883,0.11153 2.522399,0.34287 3.68732,0.8734 0.739558,0.33682 0.965846,0.51763 1.651159,0.95808 1.576964,1.0947 2.946154,2.43555 4.251933,3.83306 0.331193,0.41296 0.875406,1.05918 1.137783,1.51919 0.926994,1.62524 1.165161,3.55426 1.412578,5.37219 0.335833,3.16849 -0.04598,6.33945 -0.97083,9.3814 -0.187637,0.61716 -0.424423,1.2183 -0.636638,1.82745 -0.269181,0.6366 -0.506957,1.28742 -0.80755,1.9098 -0.316823,0.656 -0.681763,1.28791 -1.042512,1.92081 -1.322437,2.32011 -2.81846,4.51719 -4.404039,6.66279 -1.379215,1.91889 -3.110566,3.53473 -4.994214,4.94716 -0.551355,0.28705 -1.001067,0.74588 -1.561857,1.01376 0,0 3.702079,-1.42981 3.702079,-1.42981 v 0 c 0.435758,-0.35213 0.915347,-0.64695 1.362805,-0.98331 1.793624,-1.43478 3.444502,-3.04441 4.73904,-4.95438 1.092009,-1.54852 2.141569,-3.11601 3.127417,-4.73524 0.646403,-1.0617 1.646351,-2.7549 2.188194,-3.87495 0.308457,-0.63761 0.558334,-1.30194 0.837504,-1.95291 0.537885,-1.64161 0.732504,-2.10576 1.115637,-3.81635 0.556974,-2.48675 0.718529,-5.02973 0.487577,-7.56838 -0.227801,-1.88093 -0.419489,-3.91223 -1.332148,-5.61622 -0.246399,-0.46005 -0.834353,-1.16309 -1.15833,-1.5707 -1.328158,-1.41995 -2.713702,-2.77681 -4.307697,-3.90303 -0.682599,-0.45863 -0.94316,-0.67029 -1.684899,-1.02467 -1.188164,-0.56765 -2.472586,-0.84642 -3.777916,-0.96537 -0.34888,-0.0179 -0.697304,-0.0522 -1.046644,-0.0538 -1.841498,-0.008 -3.664495,0.38975 -5.507472,0.36172 -1.616313,-0.008 -3.32687,0.0872 -4.847719,-0.53929 -0.329631,-0.26922 -0.589023,-0.40917 -0.755825,-0.82412 -0.401785,-0.99948 0.351232,-1.9529 0.909151,-2.69302 2.579007,-3.05432 5.717151,-5.52703 8.834413,-8.00636 3.681879,-2.82176 7.500419,-5.4564 11.292105,-8.12749 1.147511,-0.81825 2.24451,-1.66295 3.342404,-2.54393 0.201742,-0.16188 0.404479,-0.32279 0.613585,-0.47504 0.177149,-0.12898 0.73679,-0.47347 0.544589,-0.36822 -0.972643,0.53262 -1.925293,1.10096 -2.88794,1.65144 0,0 3.069153,-2.45503 3.069153,-2.45503 z" />
    <path
       style="fill:#5d6d57;fill-opacity:0.0431373;stroke:#000000;stroke-width:1.2"
       id="path915"
       d="m 60.929017,149.9544 c -0.771793,2.89943 -1.516846,5.8048 -2.182858,8.73068 -0.97151,4.05036 -1.563568,8.17054 -2.133772,12.29158 -0.303842,2.22488 -0.478893,4.46264 -0.583012,6.7047 -0.02937,0.76982 -0.03121,0.40517 -0.0039,1.09396 0,0 3.446806,-1.78317 3.446806,-1.78317 v 0 c -0.05521,-0.63878 -0.03691,-0.29494 -0.04388,-1.03204 0.0056,-2.18559 0.114718,-4.37019 0.342882,-6.54435 0.445783,-4.10828 1.072348,-8.19151 2.052328,-12.21012 0.732411,-3.01301 1.522931,-6.02474 2.672265,-8.91027 0,0 -3.566824,1.65903 -3.566824,1.65903 z" />
    <path
       style="fill:#5d6d57;fill-opacity:0.0431373;stroke:#000000;stroke-width:1.2"
       id="path917"
       d="m 60.049912,162.07213 c 2.343708,-1.35614 2.667503,-1.53413 4.192143,-2.42965 0.244126,-0.14339 0.976847,-0.57298 0.732142,-0.43058 -5.772208,3.35899 0.682479,-0.37803 2.636377,-1.56268 -0.745882,0.43354 -1.496656,0.85877 -2.237642,1.30063 -0.335712,0.20018 0.682828,-0.38066 1.021656,-0.57553 1.385621,-0.79692 2.766484,-1.60209 4.151636,-2.39982 0.759391,-0.43736 -3.034065,1.75545 -2.274356,1.31865 4.057957,-2.33314 2.761004,-1.53554 4.806709,-2.81312 1.166601,-0.73554 2.341676,-1.46448 -1.86282,1.04826 -0.183623,0.10974 0.375661,-0.20511 0.568275,-0.29817 0.513381,-0.24803 1.051414,-0.45198 1.583221,-0.6559 0.934051,-0.30452 1.883186,-0.56219 2.833397,-0.81114 0.129111,-0.029 0.25822,-0.0579 0.387329,-0.0869 0,0 3.107523,-2.35344 3.107523,-2.35344 v 0 c -0.133966,0.024 -0.267933,0.048 -0.401899,0.072 -0.970722,0.24516 -1.928445,0.53879 -2.892066,0.80998 -2.454346,0.83385 -4.651673,2.24004 -6.828535,3.63336 -0.254765,0.15628 -1.025367,0.61435 -0.764292,0.46885 0.792107,-0.44143 3.142078,-1.8122 2.357843,-1.35692 -13.592895,7.8911 2.033068,-1.1624 -2.908843,1.66619 -1.375582,0.78733 -2.746327,1.5831 -4.119493,2.37465 -0.296098,0.17981 -1.193115,0.70404 -0.888294,0.53945 0.773872,-0.41787 3.058231,-1.73865 2.296152,-1.29965 -1.359077,0.78291 -2.724933,1.55399 -4.087175,2.33138 -0.26557,0.15155 -0.531005,0.30335 -0.796258,0.45546 -0.19435,0.11144 -0.776938,0.44658 -0.582546,0.33521 1.023453,-0.58637 2.046488,-1.17346 3.069732,-1.76019 0,0 -3.099916,2.47964 -3.099916,2.47964 z" />
    <path
       style="fill:#5d6d57;fill-opacity:0.0431373;stroke:#000000;stroke-width:1.2"
       id="path919"
       d="m 75.318447,146.62826 c -0.900811,2.6294 -1.754746,5.27437 -2.487874,7.95557 -0.585155,2.07176 -1.003107,4.17725 -1.201939,6.31988 -0.01778,0.26109 -0.03913,0.52195 -0.05335,0.78326 -0.01363,0.25048 -0.0094,0.50196 -0.03016,0.75196 -0.07703,0.92691 -0.310724,1.83969 -0.491167,2.74976 -0.207693,1.15759 -0.275188,2.33288 -0.417378,3.49943 -0.130241,0.66091 -0.414313,1.26603 -0.656286,1.88809 0,0 3.548423,-1.65681 3.548423,-1.65681 v 0 c 0.208941,-0.64242 0.436747,-1.28045 0.569989,-1.94458 0.130702,-1.1535 0.175842,-2.31679 0.398034,-3.45876 0.264805,-1.42384 0.530378,-2.84108 0.512482,-4.29731 0.176705,-2.08697 0.54579,-4.14412 1.054158,-6.17663 0.724564,-2.7469 1.604425,-5.45977 2.780255,-8.04992 0,0 -3.525192,1.63606 -3.525192,1.63606 z" />
    <path
       style="fill:#5d6d57;fill-opacity:0.0431373;stroke:#000000;stroke-width:1.2"
       id="path921"
       d="m 87.395726,143.40069 c -0.83752,2.14174 -1.74898,4.25551 -2.648762,6.37198 -1.236329,2.7419 -2.479582,5.4799 -3.757245,8.20278 -0.766304,1.4742 -1.454502,2.98883 -2.205775,4.46975 0,0 3.50988,-1.59659 3.50988,-1.59659 v 0 c 0.656302,-1.48419 1.357495,-2.94561 2.057776,-4.4097 1.184629,-2.71366 2.371516,-5.42652 3.580937,-8.12926 0.96593,-2.20962 1.938583,-4.41896 3.079898,-6.54527 0,0 -3.616709,1.63631 -3.616709,1.63631 z" />
    <path
       style="fill:#5d6d57;fill-opacity:0.0431373;stroke:#000000;stroke-width:1.2"
       id="path923"
       d="m 89.357929,143.0992 c 1.18881,1.00031 2.437903,1.92268 3.661542,2.88055 1.577541,1.23398 3.025238,2.62081 4.546116,3.92177 0.540951,0.5035 1.143733,0.94499 1.644994,1.49119 0.456636,0.49757 0.846159,1.07427 1.261459,1.60623 0.37082,0.49236 0.73597,0.98886 1.10612,1.48173 0,0 3.30995,-1.97014 3.30995,-1.97014 v 0 c -0.3836,-0.48514 -0.76332,-0.97323 -1.13257,-1.46946 -0.42799,-0.54477 -0.83465,-1.13154 -1.30304,-1.64231 -0.50717,-0.55309 -1.11046,-1.01396 -1.67735,-1.50135 -1.545096,-1.28863 -3.075118,-2.59403 -4.614701,-3.88915 -1.177658,-0.97571 -2.410056,-1.88729 -3.455403,-3.01147 0,0 -3.347117,2.10241 -3.347117,2.10241 z" />
    <path
       style="fill:#5d6d57;fill-opacity:0.0431373;stroke:#000000;stroke-width:1.2"
       id="path925"
       d="m 88.578337,156.50672 c 1.046496,-1.15933 2.275816,-2.19764 3.493532,-3.17579 1.314026,-1.07995 2.690558,-2.07781 3.998822,-3.16533 1.169382,-0.93147 2.221209,-1.99484 3.314949,-3.01341 0,0 -3.513677,1.44057 -3.513677,1.44057 v 0 c -1.093722,1.01638 -2.15419,2.07172 -3.330014,2.9947 -1.297766,1.05786 -2.637539,2.06198 -3.924234,3.1332 -1.270267,1.04921 -2.524564,2.12633 -3.685701,3.29642 0,0 3.646323,-1.51036 3.646323,-1.51036 z" />
    <path
       style="fill:#5d6d57;fill-opacity:0.0431373;stroke:#000000;stroke-width:1.2"
       id="path927"
       d="m 102.71238,137.4984 c 1.34847,1.2368 2.09424,3.02223 2.8154,4.67033 0.78877,1.78525 0.93474,3.74047 1.01317,5.66517 0.10278,1.04295 0.31571,2.06964 0.4269,3.11152 0.0108,0.12825 0.0217,0.2565 0.0326,0.38475 0,0 3.46004,-1.7996 3.46004,-1.7996 v 0 c -0.0112,-0.1345 -0.0223,-0.269 -0.0335,-0.40351 -0.15146,-1.01442 -0.39424,-2.01202 -0.53055,-3.02877 -0.1593,-1.9455 -0.28564,-3.96769 -1.13397,-5.7549 -0.48028,-1.02551 -0.96635,-2.04585 -1.49717,-3.04651 -0.27774,-0.52358 -0.54833,-1.04729 -0.89716,-1.52814 -0.0864,-0.11914 -0.19368,-0.22168 -0.29052,-0.33252 0,0 -3.36517,2.06218 -3.36517,2.06218 z" />
    <path
       style="fill:#5d6d57;fill-opacity:0.0431373;stroke:#000000;stroke-width:1.2"
       id="path929"
       d="m 108.61363,134.27616 c 1.6344,-2.07856 3.67525,-3.79495 5.65967,-5.52586 1.49216,-1.28302 2.966,-2.5983 4.57165,-3.74126 0.34015,-0.24212 1.41344,-0.88601 1.04257,-0.69424 -0.74077,0.38303 -1.43708,0.84652 -2.15562,1.26978 0.86844,-0.48372 1.79479,-0.83739 2.75605,-1.08481 0.4386,-0.11289 1.02954,-0.25624 1.49873,-0.21568 0.18163,0.0157 0.35196,0.0952 0.52794,0.1428 0.31533,0.22557 0.52397,0.30799 0.68075,0.69198 0.34093,0.83499 -0.5108,2.69661 -0.78457,3.45233 -1.06414,2.78975 -2.59061,5.34966 -4.30922,7.7781 -1.38007,1.91932 -3.07269,3.57234 -4.66724,5.30689 -0.92474,1.0155 -1.86143,2.02018 -2.82813,2.99592 -0.0309,0.10334 -0.14736,0.21702 -0.0927,0.31001 0.3092,0.52613 0.74145,0.29249 1.18317,0.17103 0.34245,-0.0942 0.67765,-0.21294 1.01627,-0.32006 1.73452,-0.54873 1.03524,-0.32445 2.94947,-0.96107 2.61666,-0.92754 5.2002,-1.93951 7.83205,-2.82492 0,0 2.96088,-2.30554 2.96088,-2.30554 v 0 c -2.67803,0.94901 -5.31534,2.00209 -7.99062,2.95707 -2.0402,0.64341 -0.97957,0.32112 -2.80125,0.85443 -0.30984,0.0907 -0.62012,0.17995 -0.92928,0.27295 -0.18943,0.057 -0.40954,0.0565 -0.56644,0.17699 -0.0863,0.0663 -0.0753,0.20837 -0.0771,0.31716 -7.9e-4,0.0495 0.0493,-0.0858 0.074,-0.12878 0.92351,-0.97754 1.8538,-1.94906 2.73135,-2.96884 1.54984,-1.73251 3.2031,-3.38399 4.5314,-5.30143 1.67755,-2.47773 3.19137,-5.06613 4.28123,-7.86248 0.4102,-1.03939 1.31098,-2.72615 0.81042,-3.87242 -0.21296,-0.48767 -0.43039,-0.58228 -0.82734,-0.89881 -0.2096,-0.0774 -0.40836,-0.19579 -0.62882,-0.23208 -0.53259,-0.0877 -1.09726,0.0606 -1.60509,0.18121 -0.99037,0.23519 -1.9558,0.55291 -2.85212,1.04399 -1.37708,0.79782 -2.76789,1.57242 -4.13125,2.39347 -0.57748,0.34778 -1.53707,1.10035 -2.05342,1.51133 -1.17387,0.93434 -2.30039,1.92452 -3.42516,2.91684 -2.08273,1.82378 -4.17068,3.65816 -6.00868,5.7348 0,0 3.62648,-1.5408 3.62648,-1.5408 z" />
    <path
       style="fill:#5d6d57;fill-opacity:0.0431373;stroke:#000000;stroke-width:1.2"
       id="path931"
       d="m 133.4055,118.47218 c -0.91186,2.75618 -2.08181,5.42113 -3.16349,8.1138 -1.23071,3.05114 -2.45347,6.10171 -3.95797,9.0299 -0.62448,1.26577 -1.34363,2.49746 -1.80789,3.83585 -0.14458,0.41681 -0.2615,0.84287 -0.40603,1.2597 -0.20976,1.57146 -0.17357,0.86174 3.65631,-1.80755 0.20208,-0.14084 0.14803,-0.4699 0.22561,-0.70369 0.11289,-0.34022 0.22331,-0.68139 0.34576,-1.01829 0.40775,-1.12186 0.52873,-1.36137 1.00455,-2.47524 1.04461,-2.45226 2.24236,-4.83691 3.43665,-7.219 0.28683,-0.48605 0.57267,-1.0514 0.97881,-1.46169 0.16203,-0.16367 0.74899,-0.53362 0.54869,-0.41993 -5.65921,3.2121 -3.30491,1.65747 -2.19243,1.53837 0.19784,-0.0212 0.39791,0.005 0.59687,0.007 1.32915,0.14609 2.48559,0.8416 3.64569,1.45092 0.16825,0.0574 0.32761,0.1573 0.50475,0.17223 0.18321,0.0154 0.38743,0.0107 0.54519,-0.0837 1.29585,-0.77559 2.60372,-1.55148 3.77655,-2.50292 0.27224,-0.22085 0.32252,-0.62281 0.46904,-0.94127 0.0936,-0.20336 1.06311,-2.47331 1.13018,-2.63005 0.54266,-1.18434 1.03373,-2.39165 1.55916,-3.58339 0.0782,-0.17728 0.53529,-1.2041 0.7107,-1.41893 0.10237,-0.12538 0.26165,-0.19063 0.39247,-0.28595 -0.98568,0.60953 -2.02235,1.14345 -2.95705,1.8286 -0.10928,0.0801 0.27384,0.006 0.40424,0.0426 0.2195,0.062 0.42963,0.1551 0.63645,0.25127 0.87377,0.4063 1.66333,0.95758 2.46084,1.4918 1.5238,1.01274 2.90835,2.23437 3.98666,3.71616 0.39973,0.59436 0.93389,1.0543 1.48467,1.49927 0,0 3.32059,-2.09104 3.32059,-2.09104 v 0 c -0.54445,-0.41197 -1.10343,-0.8053 -1.51308,-1.36585 -1.17097,-1.46533 -2.61944,-2.67303 -4.14215,-3.76033 -0.97562,-0.69002 -1.9577,-1.40189 -3.0334,-1.93191 -0.16507,-0.0813 -0.33688,-0.2922 -0.50624,-0.22022 -1.29994,0.5525 -2.48374,1.3459 -3.72561,2.01885 -0.45404,0.59292 -0.60889,1.07984 -0.88385,1.77952 -0.46609,1.18607 -0.93238,2.37217 -1.46603,3.53026 -0.41707,0.93679 -0.75236,1.74896 -1.25305,2.64399 -0.17417,0.31136 -0.92453,0.97537 -0.57529,0.90253 1.00677,-0.20997 1.83388,-0.93274 2.7693,-1.36011 0.14852,-0.0679 -0.24307,0.24463 -0.40272,0.27887 -0.15956,0.0342 -0.3209,-0.0595 -0.48135,-0.0893 -1.21083,-0.59937 -2.38963,-1.32661 -3.73637,-1.57735 -0.22892,-0.0269 -1.02535,-0.15784 -1.26376,-0.0391 -0.48101,0.23952 -3.32664,1.46213 -4.29101,2.65832 -0.34507,0.42802 -0.60805,0.9995 -0.85733,1.47715 -1.12528,2.4024 -2.3641,4.75379 -3.37307,7.20854 -0.63788,1.47916 -0.46266,1.05615 -1.06721,2.52306 -0.14429,0.35009 -0.28064,0.7035 -0.43036,1.05131 -0.10759,0.24996 -0.60744,0.79887 -0.34141,0.74158 3.61548,-0.77865 3.74047,-0.23056 3.3953,-1.47845 0.43806,-1.73763 1.21452,-3.34446 2.02556,-4.93652 1.4443,-2.92984 2.58469,-5.9866 3.83064,-9.00365 0.68494,-1.67769 1.36585,-3.35941 2.08221,-5.02401 0.38472,-0.89398 0.81158,-1.76954 1.19098,-2.66579 0.0921,-0.21762 0.16774,-0.44186 0.25161,-0.66278 0,0 -3.53788,1.70625 -3.53788,1.70625 z" />
    <path
       style="fill:#5d6d57;fill-opacity:0.0431373;stroke:#000000;stroke-width:1.2"
       id="path933"
       d="m 164.396,103.43424 c -0.81548,2.46355 -1.65029,4.92068 -2.49465,7.37449 -1.24835,3.19847 -1.92414,6.56777 -2.33604,9.96449 0,0 3.27435,-1.6273 3.27435,-1.6273 v 0 c 0.0859,-1.09007 0.10904,-1.64063 0.29051,-2.75656 0.39303,-2.41679 1.08229,-4.77513 1.94301,-7.06435 0.9083,-2.54746 1.81328,-5.09916 2.88623,-7.58322 0,0 -3.56341,1.69245 -3.56341,1.69245 z" />
    <path
       style="fill:#5d6d57;fill-opacity:0.0431373;stroke:#000000;stroke-width:1.2"
       id="path935"
       d="m 166.08747,102.79947 c 0.77612,0.71463 1.36256,1.59543 2.05438,2.38508 0.52923,0.60406 1.16205,1.24146 1.7198,1.81656 1.54816,1.59333 3.21813,3.07169 4.93174,4.48473 0.65508,0.57376 1.54927,1.00208 1.90061,1.83939 0,0 3.39801,-1.93093 3.39801,-1.93093 v 0 c -0.0667,-0.12258 -0.11754,-0.25523 -0.20011,-0.36773 -0.49054,-0.66847 -1.27537,-1.04437 -1.90923,-1.54743 -1.77136,-1.33101 -3.44608,-2.80171 -4.99737,-4.3832 -0.60523,-0.63851 -1.09909,-1.13429 -1.65269,-1.81507 -0.65974,-0.81133 -1.19449,-1.71656 -1.88046,-2.50792 0,0 -3.36468,2.02652 -3.36468,2.02652 z" />
    <path
       style="fill:#5d6d57;fill-opacity:0.0431373;stroke:#000000;stroke-width:1.2"
       id="path937"
       d="m 166.42366,112.43994 c 1.2049,-0.97964 2.53318,-1.79651 3.78695,-2.71149 0.83074,-0.68196 1.68022,-1.34106 2.47639,-2.06356 0,0 -3.56532,1.45249 -3.56532,1.45249 v 0 c -0.78668,0.68578 -1.5962,1.34594 -2.4124,1.9962 -1.30731,0.93413 -2.65698,1.80825 -3.94384,2.77134 0,0 3.65822,-1.44498 3.65822,-1.44498 z" />
    <path
       style="fill:#5d6d57;fill-opacity:0.0431373;stroke:#000000;stroke-width:1.2"
       id="path939"
       d="m 86.752204,217.9624 c 0.791673,-1.0907 1.540446,-2.21387 2.375019,-3.27211 1.684166,-2.13552 3.414421,-4.23514 5.178208,-6.30538 5.864399,-6.88333 11.452039,-13.09423 17.795759,-19.61376 3.8907,-3.99851 7.87641,-7.90418 11.87937,-11.7903 4.10329,-3.98352 8.29195,-7.87814 12.43793,-11.81721 12.36208,-11.03034 13.07147,-11.80091 25.31339,-22.21216 3.42395,-2.91193 6.89148,-5.7722 10.33721,-8.6583 0,0 -0.30195,0.12207 -0.30195,0.12207 v 0 c -11.93415,10.11243 -23.89156,20.20379 -35.42281,30.77888 -4.14595,3.93913 -8.3346,7.83379 -12.43786,11.81738 -14.08033,13.66966 -27.560136,27.94374 -40.698275,42.51689 0,0 3.544009,-1.566 3.544009,-1.566 z" />
    <path
       sodipodi:type="spiral"
       style="fill:none;fill-rule:evenodd;stroke:#000000;stroke-width:0.264583"
       id="path941"
       sodipodi:cx="95.147957"
       sodipodi:cy="9.0871639"
       sodipodi:expansion="1"
       sodipodi:revolution="3"
       sodipodi:radius="232.09245"
       sodipodi:argument="-17.409256"
       sodipodi:t0="0"
       d="M 95.147957,9.0871639 C 96.662204,20.624968 80.342304,16.820684 75.971368,11.603942 64.126402,-2.5331066 75.877514,-22.586761 90.114401,-29.266014 115.58085,-41.213631 143.97405,-23.099373 152.67772,1.5368294 165.45072,37.691447 140.25508,75.400922 105.21507,85.79352 58.512247,99.64522 11.218435,67.128192 -0.73498858,21.671055 -15.777152,-35.532114 24.163818,-92.521371 80.047288,-105.97237 147.72966,-122.26333 214.47157,-74.845843 229.38408,-8.5302832 246.95796,69.62031 192.03352,146.14841 115.28218,162.49988 26.669728,181.37829 -59.665976,118.92773 -77.441345,31.738167 -97.638849,-67.332155 -27.649313,-163.49001 69.980175,-182.67873 179.50571,-204.20557 285.49604,-126.66803 306.09044,-18.597396 328.95412,101.38149 243.86196,217.21194 125.34929,239.20623" />
    <path
       sodipodi:type="spiral"
       style="fill:none;fill-rule:evenodd;stroke:#000000;stroke-width:0.264583"
       id="path943"
       sodipodi:cx="86.595329"
       sodipodi:cy="14.432554"
       sodipodi:expansion="1"
       sodipodi:revolution="3"
       sodipodi:radius="212.95226"
       sodipodi:argument="-17.418528"
       sodipodi:t0="0"
       d="M 86.595329,14.432554 C 88.082791,25.005522 73.07704,21.653952 69.022361,16.904813 58.034431,4.0349392 68.645394,-14.464106 81.650813,-20.713382 104.91445,-31.891872 131.1191,-15.513712 139.31423,7.0157791 151.34092,40.078714 128.5449,74.891213 96.484363,84.724427 53.752704,97.830554 10.084364,68.398746 -1.2695115,26.793846 -15.557205,-25.561674 20.603537,-78.188668 71.761779,-91.005255 133.72127,-106.52786 195.35985,-63.590429 209.60611,-2.8732543 226.39483,68.679835 176.65308,139.36104 106.3734,155.0163 25.232724,173.09092 -54.510903,116.52744 -71.561384,36.68288 -90.935224,-54.041588 -27.538349,-142.86109 61.872746,-161.29713 162.17848,-181.97957 260.08343,-111.74109 279.89798,-12.762288 301.89588,97.122948 224.80982,204.12039 116.26243,225.30817" />
    <path
       sodipodi:type="spiral"
       style="fill:none;fill-rule:evenodd;stroke:#000000;stroke-width:0.264583"
       id="path945"
       sodipodi:cx="118.40041"
       sodipodi:cy="37.685001"
       sodipodi:expansion="1"
       sodipodi:revolution="3"
       sodipodi:radius="145.9135"
       sodipodi:argument="-17.363117"
       sodipodi:t0="0"
       d="m 118.40041,37.685001 c 0.61642,7.289856 -9.52246,4.427477 -12.11622,1.024527 -7.028921,-9.221783 0.93247,-21.475095 10.06717,-25.256965 16.33983,-6.7648779 33.64601,5.434505 38.39771,21.158858 6.97331,23.07612 -9.94345,46.027758 -32.25055,51.538457 C 92.766661,93.494773 64.008181,71.70214 57.819318,42.807636 50.031264,6.4468509 76.7674,-28.185273 112.25325,-35.012314 c 42.97812,-8.268461 83.5183,23.445857 90.9607,65.525627 8.77061,49.589554 -27.94197,96.057957 -76.61732,104.101437 C 70.399012,143.90128 17.989495,102.17777 9.3544408,46.905743 -0.45725616,-15.897851 46.285672,-74.257248 108.15514,-83.477191 177.56334,-93.820573 241.87885,-42.052251 251.67882,26.415206 262.55865,102.42706 205.76057,172.70328 130.69474,183.07963" />
    <path
       sodipodi:type="spiral"
       style="fill:none;fill-rule:evenodd;stroke:#000000;stroke-width:0.264583"
       id="path947"
       sodipodi:cx="137.10927"
       sodipodi:cy="161.16353"
       sodipodi:expansion="1"
       sodipodi:revolution="2.6331296"
       sodipodi:radius="42.785263"
       sodipodi:argument="-20.820204"
       sodipodi:t0="0"
       d="m 137.10927,161.16353 c -0.95143,-2.25128 2.56528,-2.39321 3.74177,-1.58134 3.18824,2.20012 1.92996,6.91691 -0.57909,9.06489 -4.4881,3.84223 -11.24894,1.7618 -14.38801,-2.73953 -4.60671,-6.60586 -1.61329,-15.64864 4.89996,-19.71112 8.68114,-5.41465 20.07353,-1.47465 25.03424,7.06039 6.24255,10.74047 1.3414,24.51071 -9.22082,30.35736 -12.79227,7.08107 -28.95487,1.21133 -35.68047,-11.38126 -7.92589,-14.83993 -1.08328,-33.40339 13.54168,-41.00359 16.8851,-8.77473 37.85483,-0.95656 46.32671,15.70212 9.62629,18.92865 0.83077,42.3083 -17.86255,51.64982 -10.50781,5.25102 -23.00366,5.6611 -33.90666,1.35356" />
    <path
       sodipodi:type="spiral"
       style="fill:none;fill-rule:evenodd;stroke:#000000;stroke-width:0.264583"
       id="path949"
       sodipodi:cx="18.174328"
       sodipodi:cy="115.46043"
       sodipodi:expansion="1"
       sodipodi:revolution="2.6331301"
       sodipodi:radius="63.248642"
       sodipodi:argument="-15.461865"
       sodipodi:t0="0"
       d="m 18.174328,115.46043 c -3.504164,-0.88021 -0.542327,-5.15781 1.462965,-5.82415 5.434218,-1.80576 9.882462,3.87687 10.185337,8.75008 0.541773,8.71703 -7.930281,14.84656 -16.037198,14.54652 C 1.8882054,132.49256 -6.1226074,120.91218 -5.1222763,109.60856 -3.7889922,94.542629 10.999629,84.60054 25.489155,86.339671 43.722743,88.52819 55.616477,106.56734 53.119234,124.23822 50.094738,145.64002 28.783339,159.49591 7.9335703,156.22948 -16.637161,152.38011 -32.461421,127.78386 -28.41888,103.7567 -23.751607,76.016406 4.1374923,58.219784 31.341016,63.043067 c 30.910373,5.48052 50.682087,36.667832 45.074822,67.047013 -3.151944,17.07668 -13.787516,32.19236 -28.57458,41.22967" />
    <path
       sodipodi:type="spiral"
       style="fill:none;fill-rule:evenodd;stroke:#000000;stroke-width:0.264583"
       id="path951"
       sodipodi:cx="10.690781"
       sodipodi:cy="210.34111"
       sodipodi:expansion="1"
       sodipodi:revolution="2.6331301"
       sodipodi:radius="272.57153"
       sodipodi:argument="-17.551445"
       sodipodi:t0="0"
       d="m 10.690781,210.34111 c 4.1934,14.9951 -18.1442185,13.05067 -24.922841,6.96971 -18.369648,-16.47904 -6.607345,-45.26898 10.9834263,-56.81539 C 28.217129,139.8416 69.259617,158.45082 85.459303,189.43199 109.23299,234.8981 83.010736,289.62304 38.569609,310.03247 -20.663423,337.23503 -89.471396,303.13266 -113.92342,245.18965 -144.6938,172.27427 -102.59656,89.216662 -31.127462,60.804066 55.431189,26.392606 152.82418,76.543521 185.15067,161.55316 223.24631,261.73408 165.00778,373.51263 66.448438,409.72384 -47.342218,451.5311 -173.53834,385.18361 -213.61479,273.06847 -259.15219,145.67613 -184.68148,5.0407353 -59.006291,-38.887297 11.637987,-63.580031 90.933974,-56.075152 156.3525,-20.045315" />
    <path
       sodipodi:type="spiral"
       style="fill:none;fill-rule:evenodd;stroke:#000000;stroke-width:0.264583"
       id="path953"
       sodipodi:cx="99.691528"
       sodipodi:cy="106.106"
       sodipodi:expansion="1"
       sodipodi:revolution="2.6331301"
       sodipodi:radius="44.340294"
       sodipodi:argument="-15.218193"
       sodipodi:t0="0"
       d="m 99.691528,106.106 c -2.235135,-1.19153 0.503432,-3.60078 1.980412,-3.71494 4.00252,-0.30937 6.06767,4.30911 5.44947,7.67576 -1.10581,6.02216 -7.906419,8.75934 -13.371109,7.18401 C 85.730649,114.93896 82.239304,105.70544 84.831764,98.184366 88.287105,88.159959 100.02997,83.897338 109.59357,87.531297 121.6284,92.104265 126.669,106.38869 121.98117,117.98846 116.30359,132.03734 99.461057,137.8594 85.828664,132.11059 69.763361,125.33582 63.157746,105.92554 69.972,90.262729 c 7.867325,-18.083336 29.851449,-25.47387 47.54321,-17.591196 20.10251,8.956795 28.27891,33.518887 19.32573,53.238557 -5.03274,11.08479 -14.82519,19.56964 -26.41396,23.21697" />
  </g>
</svg>
