<?xml version="1.0" encoding="UTF-8" standalone="no"?>
<svg
   xmlns:dc="http://purl.org/dc/elements/1.1/"
   xmlns:cc="http://creativecommons.org/ns#"
   xmlns:rdf="http://www.w3.org/1999/02/22-rdf-syntax-ns#"
   xmlns:svg="http://www.w3.org/2000/svg"
   xmlns="http://www.w3.org/2000/svg"
   xmlns:sodipodi="http://sodipodi.sourceforge.net/DTD/sodipodi-0.dtd"
   xmlns:inkscape="http://www.inkscape.org/namespaces/inkscape"
   id="svg8"
   version="1.1"
   viewBox="0 0 133.2728 133.2728"
   height="133.2728mm"
   width="133.2728mm"
   sodipodi:docname="gear.svg"
   inkscape:version="1.0.1 (3bc2e813f5, 2020-09-07)">
  <defs
     id="defs2" />
  <sodipodi:namedview
     id="base"
     pagecolor="#ffffff"
     bordercolor="#666666"
     borderopacity="1.0"
     inkscape:pageopacity="0.0"
     inkscape:pageshadow="2"
     inkscape:zoom="1.4142136"
     inkscape:cx="160.48478"
     inkscape:cy="215.55495"
     inkscape:document-units="mm"
     inkscape:current-layer="g129"
     inkscape:document-rotation="0"
     showgrid="false"
     inkscape:window-width="1920"
     inkscape:window-height="1051"
     inkscape:window-x="-9"
     inkscape:window-y="-9"
     inkscape:window-maximized="1"
     fit-margin-top="0"
     fit-margin-left="0"
     fit-margin-right="0"
     fit-margin-bottom="0"
     inkscape:snap-global="true"
     inkscape:snap-nodes="true"
     inkscape:snap-bbox="true"
     inkscape:bbox-paths="false"
     inkscape:snap-page="false"
     inkscape:snap-grids="false"
     inkscape:snap-to-guides="false"
     inkscape:snap-text-baseline="false"
     inkscape:snap-midpoints="true"
     inkscape:object-paths="true" />
  <metadata
     id="metadata5">
    <rdf:RDF>
      <cc:Work
         rdf:about="">
        <dc:format>image/svg+xml</dc:format>
        <dc:type
           rdf:resource="http://purl.org/dc/dcmitype/StillImage" />
        <dc:title></dc:title>
      </cc:Work>
    </rdf:RDF>
  </metadata>
  <g
     inkscape:label="Layer 1"
     inkscape:groupmode="layer"
     id="layer1"
     transform="translate(-39.1966,-111.7686)">
    <g
       inkscape:label="Rendered Gears"
       transform="translate(106.03144,178.37193)"
       id="g129"
       style="display:inline">
      <path
         id="path125"
         style="fill:#8c99ad;stroke:#000000;stroke-width:4.53543313;stroke-miterlimit:4;stroke-dasharray:none;fill-opacity:0.32156864"
         d="M 248.83789 3.5898438 L 236.86523 23.162109 L 229.58398 42.953125 L 219.29883 44.306641 L 207.14258 27.074219 L 190.51172 11.269531 L 184.68555 12.830078 L 178.18555 34.833984 L 176.27539 55.835938 L 166.69141 59.804688 L 150.48828 46.306641 L 130.33398 35.34375 L 125.11133 38.359375 L 124.52734 61.294922 L 128.11719 82.076172 L 119.88672 88.390625 L 100.74414 79.544922 L 78.4375 74.171875 L 74.171875 78.4375 L 79.544922 100.74414 L 88.390625 119.88672 L 82.076172 128.11719 L 61.294922 124.52734 L 38.359375 125.11133 L 35.34375 130.33398 L 46.306641 150.48828 L 59.804688 166.69141 L 55.835938 176.27539 L 34.833984 178.18555 L 12.830078 184.68555 L 11.269531 190.51172 L 27.074219 207.14258 L 44.306641 219.29883 L 42.953125 229.58398 L 23.162109 236.86523 L 3.5898438 248.83789 L 3.5898438 254.86914 L 23.162109 266.84375 L 42.953125 274.125 L 44.306641 284.41016 L 27.074219 296.56641 L 11.269531 313.19531 L 12.830078 319.02148 L 34.833984 325.52344 L 55.835938 327.43359 L 59.804688 337.01758 L 46.306641 353.21875 L 35.34375 373.375 L 38.359375 378.59766 L 61.294922 379.18164 L 82.076172 375.5918 L 88.390625 383.82227 L 79.544922 402.96484 L 74.171875 425.27148 L 78.4375 429.53516 L 100.74414 424.16406 L 119.88672 415.31641 L 128.11719 421.63281 L 124.52734 442.41211 L 125.11133 465.34961 L 130.33398 468.36523 L 150.48828 457.40234 L 166.69141 443.90234 L 176.27539 447.87305 L 178.18555 468.875 L 184.68555 490.87695 L 190.51172 492.43945 L 207.14258 476.63281 L 219.29883 459.40039 L 229.58398 460.75586 L 236.86523 480.54688 L 248.83789 500.11719 L 254.86914 500.11719 L 266.84375 480.54688 L 274.125 460.75586 L 284.41016 459.40039 L 296.56641 476.63281 L 313.19531 492.43945 L 319.02148 490.87695 L 325.52344 468.875 L 327.43359 447.87305 L 337.01758 443.90234 L 353.21875 457.40234 L 373.375 468.36523 L 378.59766 465.34961 L 379.18164 442.41211 L 375.5918 421.63281 L 383.82227 415.31641 L 402.96484 424.16406 L 425.27148 429.53516 L 429.53516 425.27148 L 424.16406 402.96484 L 415.31641 383.82227 L 421.63281 375.5918 L 442.41211 379.18164 L 465.34961 378.59766 L 468.36523 373.375 L 457.40234 353.21875 L 443.90234 337.01758 L 447.87305 327.43359 L 468.875 325.52344 L 490.87695 319.02148 L 492.43945 313.19531 L 476.63281 296.56641 L 459.40039 284.41016 L 460.75586 274.125 L 480.54688 266.84375 L 500.11719 254.86914 L 500.11719 248.83789 L 480.54688 236.86523 L 460.75586 229.58398 L 459.40039 219.29883 L 476.63281 207.14258 L 492.43945 190.51172 L 490.87695 184.68555 L 468.875 178.18555 L 447.87305 176.27539 L 443.90234 166.69141 L 457.40234 150.48828 L 468.36523 130.33398 L 465.34961 125.11133 L 442.41211 124.52734 L 421.63281 128.11719 L 415.31641 119.88672 L 424.16406 100.74414 L 429.53516 78.4375 L 425.27148 74.171875 L 402.96484 79.544922 L 383.82227 88.390625 L 375.5918 82.076172 L 379.18164 61.294922 L 378.59766 38.359375 L 373.375 35.34375 L 353.21875 46.306641 L 337.01758 59.804688 L 327.43359 55.835938 L 325.52344 34.833984 L 319.02148 12.830078 L 313.19531 11.269531 L 296.56641 27.074219 L 284.41016 44.306641 L 274.125 42.953125 L 266.84375 23.162109 L 254.86914 3.5898438 L 248.83789 3.5898438 z M 235.0918 84.498047 L 235.0918 200.03125 C 216.74585 204.70485 201.39852 217.35813 195.27344 234.97461 L 72.660156 234.97461 A 180.10511 168.08428 3.0756159e-06 0 1 235.0918 84.498047 z M 268.61523 84.5 A 180.10511 168.08428 3.0756159e-06 0 1 431.04883 234.97461 L 307.89062 234.97461 C 301.81365 219.05031 287.684 205.82615 268.59961 200.47852 L 268.61523 200.47852 L 268.61523 84.5 z M 251.66016 99.207031 A 10.722568 11.096585 0 0 1 251.85352 99.207031 A 10.722568 11.096585 0 0 1 262.57617 110.30273 A 10.722568 11.096585 0 0 1 251.85352 121.39844 A 10.722568 11.096585 0 0 1 241.13086 110.30273 A 10.722568 11.096585 0 0 1 251.66016 99.207031 z M 251.70508 150.44727 A 10.607381 11.103616 0 0 1 251.79102 150.44727 A 10.607381 11.103616 0 0 1 251.85352 150.44727 A 10.607381 11.103616 0 0 1 262.46094 161.54883 A 10.607381 11.103616 0 0 1 251.85352 172.65234 A 10.607381 11.103616 0 0 1 241.24805 161.54883 A 10.607381 11.103616 0 0 1 251.70508 150.44727 z M 251.85156 229.40625 C 265.52125 229.40634 276.60342 239.45505 276.60352 251.85156 C 276.60349 255.38891 275.70104 258.73478 274.09375 261.71094 C 270.06836 269.16462 261.6206 274.29681 251.85156 274.29688 C 238.18187 274.29679 227.10166 264.24808 227.10156 251.85156 C 227.10166 239.45505 238.18187 229.40634 251.85156 229.40625 z M 154.73047 241.05469 A 11.287284 10.798411 0 0 1 154.75391 241.05469 A 11.287284 10.798411 0 0 1 166.04102 251.85352 A 11.287284 10.798411 0 0 1 154.75391 262.65234 A 11.287284 10.798411 0 0 1 143.4668 251.85352 A 11.287284 10.798411 0 0 1 154.73047 241.05469 z M 396.99805 241.05469 A 11.287284 10.798411 0 0 1 397.02148 241.05469 A 11.287284 10.798411 0 0 1 408.30859 251.85352 A 11.287284 10.798411 0 0 1 397.02148 262.65234 A 11.287284 10.798411 0 0 1 385.73438 251.85352 A 11.287284 10.798411 0 0 1 396.99805 241.05469 z M 102.62695 241.17188 A 11.294436 10.682409 0 0 1 113.91992 251.78906 A 11.294436 10.682409 0 0 1 113.91992 251.85352 A 11.294436 10.682409 0 0 1 102.62695 262.53516 A 11.294436 10.682409 0 0 1 91.332031 251.85352 A 11.294436 10.682409 0 0 1 102.62695 241.17188 z M 344.89453 241.17188 A 11.294436 10.682409 0 0 1 356.1875 251.78906 A 11.294436 10.682409 0 0 1 356.1875 251.85352 A 11.294436 10.682409 0 0 1 344.89453 262.53516 A 11.294436 10.682409 0 0 1 333.59961 251.85352 A 11.294436 10.682409 0 0 1 344.89453 241.17188 z M 72.662109 268.73438 L 195.82812 268.73438 C 201.89349 284.61689 215.96112 297.81618 234.97461 303.1875 L 234.97461 419.19922 A 180.10511 168.08428 3.0756159e-06 0 1 72.662109 268.73438 z M 308.42578 268.73438 L 431.04883 268.73438 A 180.10511 168.08428 3.0756159e-06 0 1 268.73438 419.19922 L 268.73438 303.64258 C 281.84699 300.27472 293.42347 292.83447 301.17773 282.41211 C 304.24017 278.29594 306.69542 273.71055 308.42578 268.73438 z M 251.83008 330.25195 A 10.798411 11.287284 0 0 1 251.85352 330.25195 A 10.798411 11.287284 0 0 1 262.65234 341.53906 A 10.798411 11.287284 0 0 1 251.85352 352.82617 A 10.798411 11.287284 0 0 1 241.05469 341.53906 A 10.798411 11.287284 0 0 1 251.83008 330.25195 z M 251.78906 382.37305 A 10.682409 11.294436 0 0 1 251.85352 382.37305 A 10.682409 11.294436 0 0 1 262.53516 393.66602 A 10.682409 11.294436 0 0 1 251.85352 404.96094 A 10.682409 11.294436 0 0 1 241.17188 393.66602 A 10.682409 11.294436 0 0 1 251.78906 382.37305 z "
         transform="matrix(0.26458333,0,0,0.26458333,-66.83484,-66.60333)" />
      <path
         style="opacity:1;fill:#000000;fill-opacity:0;stroke:#000000;stroke-width:4.49494;stroke-miterlimit:4;stroke-dasharray:none;stroke-dashoffset:0;stroke-opacity:1"
         d=""
         id="path1030"
         transform="matrix(0.26458333,0,0,0.26458333,-66.6364,-66.6364)" />
    </g>
  </g>
</svg>
